<svg xmlns="http://www.w3.org/2000/svg" viewBox="0 0 512 512" fill="none">
  <!-- Clean rounded backdrop -->
  <rect width="512" height="512" rx="128" fill="#131314" />
  
  <!-- Minimalist Viewfinder / Capture Frame -->
  <path d="M 136 200 L 136 152 A 16 16 0 0 1 152 136 L 200 136" stroke="#E3E3E3" stroke-width="24" stroke-linecap="round" stroke-linejoin="round" />
  <path d="M 312 136 L 360 136 A 16 16 0 0 1 376 152 L 376 200" stroke="#E3E3E3" stroke-width="24" stroke-linecap="round" stroke-linejoin="round" />
  <path d="M 376 312 L 376 360 A 16 16 0 0 1 360 376 L 312 376" stroke="#E3E3E3" stroke-width="24" stroke-linecap="round" stroke-linejoin="round" />
  <path d="M 200 376 L 152 376 A 16 16 0 0 1 136 360 L 136 312" stroke="#E3E3E3" stroke-width="24" stroke-linecap="round" stroke-linejoin="round" />

  <!-- Center Aperture / Share Nexus -->
  <circle cx="256" cy="256" r="64" stroke="#8AB4F8" stroke-width="22" fill="none" />
  <circle cx="256" cy="256" r="20" fill="#8AB4F8" />
</svg>
